<?xml version="1.0" encoding="UTF-8" standalone="no"?>
<!DOCTYPE svg PUBLIC "-//W3C//DTD SVG 1.1//EN" "http://www.w3.org/Graphics/SVG/1.1/DTD/svg11.dtd">
<svg width="100%" height="100%" viewBox="0 0 65 66" version="1.1" xmlns="http://www.w3.org/2000/svg" xmlns:xlink="http://www.w3.org/1999/xlink" xml:space="preserve" xmlns:serif="http://www.serif.com/" style="fill-rule:evenodd;clip-rule:evenodd;stroke-linejoin:round;stroke-miterlimit:2;">
    <path d="M55.72,9.77C54.56,8.66 53.34,7.66 52.05,6.77C52.02,6.75 51.99,6.72 51.96,6.7C51.92,6.68 51.89,6.65 51.86,6.62C51.83,6.6 51.8,6.57 51.77,6.55C51.74,6.53 51.71,6.5 51.68,6.48C51.65,6.46 51.62,6.43 51.58,6.41C51.55,6.39 51.52,6.36 51.49,6.34C51.46,6.32 51.42,6.29 51.39,6.26C51.36,6.24 51.33,6.21 51.29,6.19C51.26,6.17 51.23,6.15 51.2,6.13C51.16,6.11 51.13,6.08 51.09,6.05C51.06,6.03 51.03,6 51,5.98C50.97,5.96 50.94,5.93 50.9,5.91C50.87,5.89 50.84,5.86 50.81,5.84C50.78,5.82 50.75,5.79 50.71,5.77C50.67,5.74 50.64,5.72 50.6,5.69C50.57,5.67 50.55,5.65 50.52,5.63C50.49,5.61 50.45,5.58 50.42,5.56C50.39,5.54 50.35,5.51 50.32,5.49C50.25,5.44 50.19,5.39 50.12,5.35C44.52,1.46 37.77,-0.4 30.67,0.07C14.04,1.18 0,16.45 0,33.42L0,62.69C0,63.11 0.17,63.52 0.48,63.81C0.56,63.88 0.64,63.95 0.73,64C0.76,64.02 0.79,64.05 0.83,64.07C0.86,64.09 0.89,64.12 0.93,64.14C0.96,64.16 0.99,64.19 1.03,64.21C1.06,64.23 1.09,64.26 1.13,64.28C1.16,64.3 1.19,64.33 1.23,64.35C1.26,64.37 1.29,64.4 1.33,64.42C1.36,64.44 1.39,64.47 1.43,64.49C1.46,64.51 1.49,64.54 1.52,64.56C1.55,64.58 1.58,64.61 1.62,64.63C1.65,64.65 1.68,64.68 1.72,64.7C1.75,64.72 1.78,64.75 1.82,64.77C1.85,64.79 1.88,64.82 1.92,64.84C1.95,64.86 1.98,64.89 2.02,64.91C2.05,64.93 2.08,64.96 2.11,64.98C2.14,65 2.17,65.03 2.21,65.05C2.24,65.07 2.27,65.1 2.31,65.12C2.34,65.14 2.37,65.17 2.41,65.19C2.44,65.21 2.47,65.24 2.51,65.26C2.54,65.28 2.57,65.31 2.61,65.33C2.64,65.35 2.67,65.38 2.71,65.4C2.98,65.59 3.3,65.71 3.63,65.71L3.7,65.71L32.96,64.43C50.23,63.68 64.6,49.28 64.98,32.35C65.18,23.66 61.91,15.64 55.77,9.77L55.72,9.77ZM32.82,62.44L4.03,63.7L4.03,34.89C4.03,18.93 17.22,4.58 32.83,3.54C40.96,3 48.6,5.73 54.34,11.22C60.06,16.7 63.12,24.19 62.93,32.31C62.57,48.22 49.06,61.73 32.82,62.44ZM55.42,32.05C55.4,31.85 55.36,31.66 55.34,31.46C55.29,31.04 55.24,30.62 55.16,30.21C55.12,29.98 55.05,29.76 55,29.54C54.91,29.17 54.83,28.79 54.73,28.43C54.66,28.18 54.56,27.95 54.48,27.71C54.37,27.38 54.26,27.04 54.13,26.71C54.03,26.46 53.9,26.22 53.79,25.98C53.65,25.67 53.52,25.36 53.36,25.06C53.23,24.81 53.07,24.58 52.93,24.33C52.76,24.05 52.61,23.76 52.43,23.49C52.27,23.25 52.08,23.02 51.91,22.78C51.72,22.53 51.55,22.26 51.35,22.02C51.15,21.78 50.94,21.56 50.73,21.33C50.53,21.11 50.35,20.89 50.15,20.68C49.98,20.44 49.8,20.22 49.62,19.99C49.53,19.87 49.44,19.75 49.34,19.63C49.06,19.29 48.76,18.97 48.46,18.65C48.46,18.65 48.44,18.63 48.43,18.62C48.11,18.3 47.79,17.98 47.45,17.68C47.34,17.58 47.22,17.49 47.1,17.4C46.88,17.21 46.66,17.02 46.43,16.85C46.2,16.61 45.95,16.41 45.71,16.19C45.47,15.97 45.25,15.74 45,15.54C44.75,15.33 44.48,15.15 44.22,14.96C43.95,14.76 43.7,14.55 43.42,14.37C43.14,14.18 42.84,14.03 42.55,13.86C42.28,13.7 42.01,13.53 41.73,13.38C41.38,13.2 41.02,13.05 40.66,12.89C40.42,12.78 40.19,12.66 39.95,12.57C39.47,12.38 38.98,12.23 38.49,12.08C38.35,12.04 38.22,11.98 38.09,11.95C36.18,11.42 34.17,11.19 32.13,11.28C21.36,11.75 12.6,20.89 12.6,31.66C12.6,32.47 12.64,33.22 12.74,33.95C13.08,36.86 14.1,39.66 15.69,42.07L13.75,52.93L13.75,53.29C13.75,53.3 13.75,53.32 13.76,53.33C13.76,53.35 13.76,53.37 13.77,53.39L13.77,53.4C13.78,53.43 13.8,53.47 13.81,53.5C13.81,53.52 13.82,53.54 13.83,53.56C13.84,53.58 13.85,53.6 13.86,53.62C13.86,53.62 13.86,53.63 13.87,53.64C13.87,53.64 13.88,53.65 13.88,53.66C13.89,53.68 13.91,53.7 13.93,53.72C13.95,53.74 13.96,53.77 13.98,53.79C13.99,53.8 14.01,53.81 14.02,53.82C14.04,53.84 14.05,53.85 14.07,53.86C14.09,53.87 14.1,53.89 14.11,53.9L14.14,53.9C14.21,53.95 14.28,53.98 14.36,54.01L14.43,54.01C14.43,54.01 14.45,54.01 14.46,54.02L14.53,54.02C14.57,54.02 14.61,54.03 14.65,54.03L14.83,54.03L26.51,52.25C28.64,53.34 30.95,54 33.37,54.22C33.92,54.27 34.48,54.3 35.06,54.3C35.36,54.3 35.67,54.3 35.98,54.28C46.75,53.81 55.51,44.66 55.51,33.89C55.51,33.26 55.48,32.63 55.42,32.01L55.42,32.05ZM51.68,31.76C51.68,32.36 51.65,32.95 51.59,33.54C51.57,33.73 51.53,33.92 51.51,34.12C51.46,34.51 51.41,34.9 51.33,35.28C51.28,35.51 51.22,35.73 51.16,35.96C51.08,36.3 51,36.63 50.9,36.96C50.83,37.2 50.74,37.43 50.65,37.67C50.54,37.98 50.44,38.29 50.32,38.59C50.22,38.83 50.11,39.06 50,39.29C49.87,39.58 49.74,39.87 49.6,40.14C49.48,40.37 49.34,40.59 49.21,40.82C49.06,41.09 48.91,41.36 48.74,41.62C48.6,41.84 48.44,42.05 48.29,42.27C48.11,42.52 47.94,42.77 47.75,43.01C47.59,43.22 47.41,43.42 47.24,43.62C47.04,43.85 46.85,44.08 46.64,44.3C46.46,44.49 46.26,44.68 46.07,44.87C45.85,45.08 45.64,45.29 45.42,45.49C45.22,45.67 45.01,45.84 44.8,46.01C44.57,46.2 44.34,46.39 44.09,46.57C43.87,46.73 43.65,46.88 43.43,47.03C43.18,47.2 42.93,47.36 42.68,47.52C42.45,47.66 42.21,47.79 41.97,47.92C41.71,48.06 41.44,48.21 41.18,48.34C40.93,48.46 40.68,48.57 40.43,48.68C40.15,48.8 39.88,48.92 39.6,49.02C39.34,49.12 39.08,49.2 38.82,49.29C38.53,49.38 38.24,49.47 37.95,49.55C37.68,49.62 37.41,49.69 37.14,49.75C36.84,49.82 36.54,49.88 36.24,49.93C35.96,49.98 35.68,50.01 35.4,50.05C35.29,50.06 35.19,50.07 35.08,50.08C44.12,48.34 51.1,40.44 51.66,31.25C51.66,31.43 51.68,31.61 51.68,31.79L51.68,31.76ZM28.93,48.26C28.17,48.15 27.42,48 26.72,47.8C26.52,47.74 26.3,47.75 26.11,47.82L24.87,48.27C24.87,48.27 24.82,48.29 24.79,48.3L16.46,51.37L19.3,44.27L19.77,43.12C19.87,42.87 19.87,42.59 19.77,42.34C19.57,41.87 19.38,41.37 19.19,40.81C18.83,39.71 18.59,38.57 18.47,37.42C18.41,36.84 18.38,36.21 18.38,35.54C18.38,34.87 18.41,34.32 18.48,33.72C18.51,33.46 18.53,33.2 18.58,32.94C18.58,32.91 18.58,32.89 18.59,32.86C18.63,32.6 18.67,32.36 18.73,32.07C18.78,31.81 18.83,31.55 18.9,31.28C18.96,31.05 19.02,30.82 19.1,30.55C19.13,30.42 19.17,30.29 19.24,30.1C19.3,29.9 19.36,29.7 19.44,29.51C19.44,29.49 19.45,29.47 19.46,29.45C19.47,29.42 19.49,29.39 19.5,29.36C19.57,29.15 19.65,28.94 19.76,28.69C19.84,28.49 19.92,28.3 20.03,28.07C20.12,27.86 20.22,27.66 20.33,27.43C20.42,27.23 20.52,27.04 20.63,26.85C20.74,26.64 20.86,26.44 20.99,26.23C21.07,26.1 21.14,25.97 21.26,25.79C21.35,25.65 21.44,25.5 21.56,25.35C23.16,22.97 25.31,20.97 27.79,19.55C27.94,19.46 28.09,19.38 28.31,19.27C28.5,19.16 28.7,19.06 28.93,18.95C29.08,18.87 29.23,18.8 29.44,18.71C29.52,18.67 29.61,18.63 29.74,18.58C29.89,18.51 30.04,18.45 30.24,18.38C30.56,18.25 30.89,18.13 31.28,18.01C31.47,17.94 31.67,17.88 31.9,17.82C32.08,17.77 32.27,17.71 32.48,17.66C32.65,17.62 32.83,17.57 33.1,17.52C33.23,17.49 33.36,17.46 33.51,17.44C33.73,17.39 33.97,17.36 34.24,17.32C34.44,17.28 34.65,17.26 34.89,17.24C35.27,17.2 35.64,17.17 36.01,17.15C39.95,16.98 43.66,18.1 46.76,20.37C47.69,21.71 48.42,23.18 48.93,24.77C49.46,26.45 49.73,28.22 49.73,30.01C49.73,39.21 42.55,47.24 33.39,48.29C32.97,48.34 32.55,48.37 32.12,48.39C31.6,48.41 31.07,48.41 30.5,48.39C30,48.36 29.5,48.32 29.02,48.26L28.93,48.26ZM32.36,15.17C32.95,15.08 33.54,15.03 34.15,15C34.55,14.98 34.96,14.99 35.36,15C35.52,15 35.68,15 35.84,15.02C36.17,15.04 36.49,15.07 36.82,15.1C36.95,15.11 37.07,15.12 37.2,15.14C37.22,15.14 37.24,15.14 37.26,15.15C36.81,15.14 36.36,15.15 35.9,15.16C35.48,15.18 35.05,15.21 34.66,15.26C34.4,15.28 34.13,15.32 33.93,15.35C33.65,15.38 33.37,15.43 33.12,15.48C32.96,15.51 32.81,15.54 32.61,15.59C32.39,15.63 32.17,15.69 31.98,15.73C31.75,15.78 31.52,15.85 31.34,15.9C31.08,15.97 30.82,16.05 30.61,16.12C30.21,16.24 29.82,16.38 29.47,16.53C29.27,16.6 29.07,16.68 28.92,16.75C28.79,16.8 28.66,16.86 28.58,16.9C28.38,16.99 28.19,17.07 28.02,17.16C27.77,17.28 27.53,17.4 27.35,17.5C27.15,17.6 26.96,17.71 26.77,17.81C24.03,19.38 21.65,21.59 19.89,24.2C19.77,24.37 19.64,24.56 19.56,24.7C19.45,24.87 19.34,25.04 19.25,25.2C19.11,25.43 18.97,25.66 18.84,25.9C18.72,26.12 18.6,26.34 18.51,26.54C18.39,26.77 18.28,27 18.19,27.21C18.07,27.45 17.97,27.69 17.88,27.93C17.78,28.16 17.69,28.39 17.61,28.63C17.58,28.7 17.56,28.76 17.54,28.81C17.45,29.04 17.38,29.27 17.32,29.47C17.25,29.67 17.18,29.87 17.15,30.02C17.07,30.27 17,30.53 16.94,30.79C16.86,31.1 16.8,31.4 16.75,31.67C16.68,31.98 16.63,32.28 16.59,32.6L16.59,32.62C16.58,32.69 16.57,32.76 16.56,32.83C16.56,32.63 16.58,32.44 16.59,32.24C16.61,31.95 16.62,31.67 16.65,31.38C16.68,31.07 16.74,30.77 16.79,30.46C16.84,30.18 16.87,29.91 16.93,29.63C16.99,29.33 17.08,29.03 17.16,28.73C17.23,28.47 17.29,28.2 17.38,27.94C17.47,27.64 17.59,27.36 17.69,27.07C17.78,26.82 17.87,26.56 17.98,26.31C18.1,26.02 18.24,25.75 18.38,25.47C18.5,25.23 18.6,24.99 18.73,24.75C18.88,24.48 19.04,24.21 19.2,23.95C19.34,23.72 19.47,23.49 19.61,23.28C19.78,23.02 19.97,22.77 20.16,22.52C20.32,22.31 20.46,22.1 20.63,21.89C20.83,21.65 21.04,21.41 21.25,21.18C21.42,20.99 21.59,20.79 21.77,20.6C21.99,20.37 22.23,20.16 22.46,19.94C22.65,19.77 22.82,19.58 23.02,19.42C23.26,19.21 23.52,19.02 23.77,18.82C23.97,18.66 24.16,18.5 24.37,18.35C24.63,18.16 24.91,17.99 25.18,17.82C25.39,17.69 25.6,17.54 25.81,17.41C26.09,17.24 26.39,17.1 26.68,16.95C26.9,16.84 27.12,16.71 27.34,16.61C27.64,16.47 27.96,16.35 28.27,16.23C28.5,16.14 28.72,16.04 28.95,15.96C29.28,15.84 29.63,15.75 29.97,15.65C30.19,15.59 30.4,15.51 30.62,15.46C31,15.37 31.4,15.3 31.79,15.23C31.98,15.2 32.17,15.15 32.36,15.12L32.36,15.17ZM14.57,32.17L14.57,31.64C14.57,22.22 22,14.18 31.31,13.32C22.23,15 15.15,22.86 14.57,32.17ZM35.9,52.31C35.08,52.34 34.31,52.33 33.56,52.26C33.23,52.23 32.91,52.19 32.59,52.14C32.88,52.15 33.16,52.14 33.42,52.14C33.66,52.15 33.9,52.14 34.15,52.14C44.03,51.71 52.22,43.98 53.51,34.4C53.25,43.91 45.45,51.89 35.9,52.31Z" style="fill:rgb(69,137,246);fill-rule:nonzero;"/>
</svg>
